<?xml version="1.0" encoding="utf-8"?>
<!-- Generator: Adobe Illustrator 26.0.1, SVG Export Plug-In . SVG Version: 6.00 Build 0)  -->
<svg version="1.1" id="Layer_1" xmlns="http://www.w3.org/2000/svg" xmlns:xlink="http://www.w3.org/1999/xlink" x="0px" y="0px"
	 viewBox="0 0 600 600" style="enable-background:new 0 0 600 600;" xml:space="preserve">
<style type="text/css">
	.st0{fill:url(#SVGID_1_);}
	.st1{fill:url(#SVGID_00000098918771668648106140000007233895590746228399_);}
	.st2{fill:#121212;}
</style>
<g>
	<g>
		
			<linearGradient id="SVGID_1_" gradientUnits="userSpaceOnUse" x1="115.1328" y1="299.65" x2="147.1288" y2="299.65" gradientTransform="matrix(1 0 0 -1 0 602)">
			<stop  offset="0" style="stop-color:#FF6600;stop-opacity:0.82"/>
			<stop  offset="1" style="stop-color:#FF0099;stop-opacity:0.82"/>
		</linearGradient>
		<path class="st0" d="M115.1,302c0-9.1,5.8-15.9,16.2-15.9c10.6,0,15.7,6.8,15.7,15.9s-5.2,16.6-15.7,16.6
			C120.9,318.6,115.1,311.1,115.1,302z"/>
		
			<linearGradient id="SVGID_00000043423141907219311600000012251647809995344036_" gradientUnits="userSpaceOnUse" x1="75.3328" y1="302" x2="177.6328" y2="302" gradientTransform="matrix(1 0 0 -1 0 602)">
			<stop  offset="0" style="stop-color:#FF6600;stop-opacity:0.82"/>
			<stop  offset="1" style="stop-color:#FF0099;stop-opacity:0.82"/>
		</linearGradient>
		<path style="fill:url(#SVGID_00000043423141907219311600000012251647809995344036_);" d="M166.1,248.8H86.8
			c-6.3,0-11.5,5.1-11.5,11.5v79.3c0,6.3,5.1,11.5,11.5,11.5h16.1v-73h10.7v3.5c0,2.9-1.5,6.3-2.5,9.2l1.9,0.6
			c1-2.7,1.6-6.7,3.7-8.8c3.8-3.8,9-6,15.8-6c15.3,0,25.6,11.2,25.4,25.7c-0.3,14.1-10.5,26-25.3,26c-6.8,0-12.1-2.4-15.8-6.2
			c-2.1-2.1-2.8-6-3.8-8.9l-1.9,0.7c1,2.7,2.5,6.2,2.5,9.2v28.1h52.5c6.3,0,11.5-5.1,11.5-11.5v-79.3
			C177.6,253.9,172.5,248.8,166.1,248.8z M117.3,263.8c-0.2,0.9-0.5,1.6-1,2.3c-0.5,0.7-1.1,1.3-1.7,1.8c-0.7,0.5-1.4,1.1-2.1,1.5
			c-0.7,0.5-1.4,1-2,1.4c-0.6,0.5-1.2,1-1.6,1.5c-0.5,0.5-0.7,1.1-0.8,1.7c-0.4-0.9-0.9-1.8-1.5-2.8s-1.2-2.1-1.8-3.2
			c-0.6-1.1-1.1-2.2-1.5-3.3c-0.4-1.1-0.6-2.2-0.6-3.2c0-0.7,0.2-1.3,0.4-1.8c0.2-0.5,0.6-0.9,0.9-1.2c0.4-0.3,0.8-0.6,1.3-0.7
			c0.5-0.2,1-0.2,1.4-0.2s0.9,0.1,1.3,0.2s0.8,0.4,1.1,0.6c0.3,0.3,0.6,0.6,0.7,1c0.2,0.4,0.2,0.9,0.2,1.4c0.2-0.5,0.4-1,0.6-1.4
			c0.3-0.4,0.6-0.7,0.9-0.9c0.3-0.2,0.7-0.3,1.1-0.4c0.4,0,0.8,0,1.2,0.1c0.5,0.1,1,0.3,1.5,0.6c0.5,0.3,0.9,0.7,1.2,1.2
			c0.3,0.5,0.6,1,0.7,1.6C117.5,262.4,117.5,263.1,117.3,263.8z"/>
	</g>
	<path class="st2" d="M322.7,265c0.4,0,0.8,0.1,1.2,0.2c0.4,0.1,0.7,0.3,1,0.6c0.3,0.2,0.5,0.5,0.6,0.9c0.1,0.4,0.2,0.8,0.2,1.2
		c0.1-0.5,0.3-0.9,0.5-1.2c0.2-0.3,0.5-0.6,0.8-0.8s0.6-0.3,1-0.3s0.7,0,1.1,0.1c0.5,0.1,0.9,0.3,1.3,0.5c0.4,0.3,0.8,0.6,1.1,1
		c0.3,0.4,0.5,0.9,0.6,1.5c0.1,0.6,0.1,1.2,0,1.8c-0.2,0.7-0.5,1.4-0.9,2s-1,1.1-1.5,1.6c-0.6,0.5-1.2,0.9-1.9,1.4
		c-0.7,0.4-1.3,0.9-1.8,1.3c-0.6,0.4-1,0.9-1.4,1.3c-0.4,0.5-0.6,1-0.7,1.5c-0.3-0.8-0.8-1.6-1.3-2.5c-0.6-0.9-1.1-1.8-1.6-2.8
		s-1-1.9-1.4-2.9s-0.6-1.9-0.5-2.8c0-0.6,0.1-1.2,0.4-1.6c0.2-0.4,0.5-0.8,0.9-1.1c0.3-0.3,0.7-0.5,1.2-0.6
		C321.8,265,322.2,265,322.7,265z"/>
	<path class="st2" d="M367.1,271.9c0-4.1,2.9-6.9,6.9-6.9s6.9,2.8,6.9,6.9c0,4.2-2.9,6.9-6.9,6.9S367.1,276.1,367.1,271.9z"/>
	<path class="st2" d="M510.9,271.9c0-4.1,2.9-6.9,6.9-6.9s6.9,2.8,6.9,6.9c0,4.2-2.9,6.9-6.9,6.9S510.9,276.1,510.9,271.9z"/>
	<path class="st2" d="M212.1,305.1v30.8h-12.9v-73.5H225c14.7,0,26.8,3.4,26.8,21s-12,21.8-27.8,21.8
		C221.4,305.3,217.2,305.3,212.1,305.1z M223,293.7c8.5,0,16.2-0.7,16.2-10.3c0-9.2-7.2-9.3-16.2-9.3h-10.8v19.6H223z"/>
	<path class="st2" d="M284,281.8c17,0,28.1,11.6,28.1,27.7c0,16.3-11.1,28-28.1,28c-16.9,0-28-11.1-28-28
		C255.9,292.6,267,281.8,284,281.8z M284,325.2c10.9,0,15.3-7,15.3-15.6c0-8.6-4.4-15.3-15.3-15.3c-10.9,0-15.2,6.7-15.2,15.3
		C268.7,318.2,273.1,325.2,284,325.2z"/>
	<path class="st2" d="M380,281.8v54.1h-12v-39.8c0.1-1.3,0.3-2.6,1-4.1c0.5-1.3,0.9-2.1,1.4-3c0.6-1,0.9-2,1.5-2.6l-1.8-0.8
		c-0.7,1.3-1.4,2.5-2.1,3.7c-0.2,0.3-0.3,0.5-0.5,0.8c-1.2,1.6-1,1.7-3,3.2c-0.3,0.2-0.6,0.4-1,0.5h-6.6v0
		c-12.2,0-24.9,4.6-24.9,19.2v22.9h-12v-52.5h12v1.6c0,4-2.1,8.8-3.5,12.5l2.1,0.9c1.5-3.7,3-8.9,6.1-11.3c5.2-4.3,10.5-5.2,20-5.2
		H380z"/>
	<path class="st2" d="M421,281.8c10,0,17.8,6.1,17.8,18.1v36h-12.1v-26.8c0-10.1-3.4-14.6-10.6-14.6c-7.9,0-14.6,4.5-14.6,14.6v26.8
		h-12v-52.5h12v0.8c0,4.2-2,9.2-3.4,13.2l2.1,0.9c1.5-4,2.9-9.7,6-12.3C410.3,282.7,414.6,281.8,421,281.8z"/>
	<path class="st2" d="M475.4,281.8c-16.9,0-28,10.8-28,27.7c0,16.9,11.1,28,28,28c17,0,28.1-11.8,28.1-28
		C503.6,293.4,492.4,281.8,475.4,281.8z M486.7,317.5c-1.4,1.8-4,4.6-9.9,8.8c-0.4,0.3-0.9,0.4-1.3,0.4s-1-0.2-1.3-0.4
		c-5.9-4.2-8.5-7-9.9-8.8c-3-3.8-4.4-7.7-4.4-11.9c0-4.8,3.8-8.8,8.3-8.8c3.1,0,5.3,1.7,6.6,3.2c0.1,0.1,0.2,0.2,0.3,0.2
		c0.1,0,0.2,0.1,0.4,0.1c0.1,0,0.2,0,0.4-0.1c0.1,0,0.2-0.1,0.3-0.2c1.4-1.5,3.6-3.2,6.6-3.2c4.6,0,8.3,3.9,8.3,8.8
		C491.2,309.8,489.7,313.7,486.7,317.5z"/>
	<path class="st2" d="M511.8,283.4h11.9v52.5h-11.9V283.4z"/>
</g>
</svg>
