<svg width="1368" height="282" viewBox="0 0 1368 282" fill="none" xmlns="http://www.w3.org/2000/svg">
<path d="M110.094 146.761C110.094 121.796 126.006 103.142 154.536 103.142C183.616 103.142 197.607 121.796 197.607 146.761C197.607 171.725 183.341 192.3 154.536 192.3C126.006 192.3 110.094 171.725 110.094 146.761Z" fill="url(#paint0_linear_199_239)"/>
<path d="M250.005 0.81543H32.4582C15.1752 0.81543 0.909912 14.8064 0.909912 32.3638V249.91C0.909912 267.193 14.9009 281.458 32.4582 281.458H76.6259V81.1951H105.98V90.7968C105.98 98.7525 101.865 108.08 99.1213 116.035L104.334 117.681C107.077 110.274 108.723 99.3011 114.484 93.5401C124.909 83.1155 139.174 77.0801 157.829 77.0801C199.802 77.0801 228.058 107.805 227.509 147.584C226.686 186.265 198.704 218.91 158.103 218.91C139.448 218.91 124.909 212.326 114.758 201.902C108.997 196.141 107.077 185.442 104.334 177.486L99.1213 179.406C101.865 186.813 105.98 196.415 105.98 204.645V281.733H250.005C267.288 281.733 281.553 267.742 281.553 250.184V32.6381C281.553 14.8064 267.562 0.81543 250.005 0.81543ZM116.13 41.9654C115.581 44.4344 114.758 46.3548 113.387 48.2751C112.015 50.1955 110.369 51.8414 108.723 53.2131C106.803 54.5848 104.882 56.2308 102.962 57.3281C101.042 58.6998 99.1212 60.0714 97.4752 61.1688C95.8292 62.5404 94.1832 63.9121 93.0859 65.2838C91.7142 66.6554 91.1656 68.3015 90.8913 69.9475C89.7939 67.4785 88.4223 65.0094 86.7763 62.2661C85.1303 59.5227 83.4842 56.5051 81.8382 53.4875C80.1922 50.4698 78.8206 47.4521 77.7232 44.4344C76.6259 41.4167 76.0772 38.3991 76.0772 35.6558C76.0772 33.7355 76.6259 32.0894 77.1746 30.7177C77.7233 29.3461 78.8206 28.2488 79.6436 27.4258C80.7409 26.6028 81.8382 25.7798 83.2099 25.5054C84.5816 24.9568 85.9532 24.9568 87.0506 24.9568C88.1479 24.9568 89.5196 25.2311 90.6169 25.5054C91.7142 25.7798 92.8116 26.6028 93.6346 27.1514C94.4576 27.9744 95.2806 28.7974 95.5549 29.8948C96.1036 30.9921 96.1036 32.3638 96.1036 33.7354C96.6522 32.3638 97.2009 30.9921 97.7496 29.8948C98.5726 28.7974 99.3956 27.9745 100.219 27.4258C101.042 26.8771 102.139 26.6028 103.236 26.3285C104.334 26.3285 105.431 26.3284 106.528 26.6027C107.9 26.8771 109.272 27.4258 110.643 28.2488C112.015 29.0718 113.112 30.1691 113.935 31.5408C114.758 32.9125 115.581 34.2841 115.856 35.9301C116.679 38.1248 116.679 40.0451 116.13 41.9654Z" fill="url(#paint1_linear_199_239)"/>
<path d="M700.186 12.3379C701.283 12.3379 702.38 12.6122 703.478 12.8865C704.575 13.1609 705.398 13.7095 706.221 14.5325C707.044 15.0812 707.593 15.9042 707.867 17.0015C708.141 18.0989 708.416 19.1962 708.416 20.2935C708.69 18.9219 709.239 17.8245 709.787 17.0015C710.336 16.1785 711.159 15.3555 711.982 14.8069C712.805 14.2582 713.628 13.9839 714.725 13.9839C715.823 13.9839 716.646 13.9839 717.743 14.2582C719.115 14.5325 720.212 15.0812 721.309 15.6299C722.407 16.4529 723.504 17.2759 724.327 18.3732C725.15 19.4705 725.699 20.8422 725.973 22.4882C726.247 24.1342 726.247 25.7802 725.973 27.4262C725.424 29.3466 724.601 31.2669 723.504 32.9129C722.407 34.5589 720.761 35.9306 719.389 37.3022C717.743 38.6739 716.097 39.7712 714.177 41.1429C712.256 42.2402 710.61 43.6119 709.239 44.7092C707.593 45.8065 706.495 47.1782 705.398 48.2756C704.301 49.6472 703.752 51.0189 703.478 52.3906C702.655 50.1959 701.283 48.0012 699.911 45.5322C698.265 43.0632 696.894 40.5942 695.522 37.8509C694.15 35.1075 692.779 32.6385 691.681 29.8952C690.584 27.1519 690.035 24.6829 690.31 22.2139C690.31 20.5679 690.584 18.9219 691.407 17.8246C691.956 16.7272 692.779 15.6299 693.876 14.8069C694.699 13.9839 695.796 13.4352 697.168 13.1609C697.717 12.3379 698.814 12.3379 700.186 12.3379Z" fill="#1E1E1E"/>
<path d="M383.605 122.345V202.176H347.942V11.2402H419.268C459.87 11.2402 493.338 20.0189 493.338 65.8326C493.338 111.646 460.144 122.62 416.251 122.62C409.118 122.62 397.596 122.62 383.605 122.345ZM413.507 92.7172C436.826 92.7172 458.498 90.7969 458.498 66.1069C458.498 42.2399 438.472 41.9656 413.507 41.9656H383.605V92.9916H413.507V92.7172Z" fill="#1E1E1E"/>
<path d="M572.895 206.84C532.294 206.84 503.763 174.195 503.763 133.593C503.763 92.9919 532.294 62.2666 572.895 62.2666C591.275 62.2666 605.266 68.5763 615.142 79.2753C620.903 85.3106 622.001 96.5583 624.744 104.24L630.505 102.319C628.036 94.3636 623.098 84.762 623.098 76.8063L622.824 66.3816H656.567V202.725H623.098L623.372 191.478C623.372 183.248 628.31 173.372 630.779 165.965L624.744 164.044C622.275 171.726 621.178 182.973 615.691 189.009C605.541 199.982 591.275 206.84 572.895 206.84ZM574.815 175.566C597.036 175.566 612.125 155.54 612.948 133.319C612.948 109.452 599.505 92.992 574.815 92.992C552.32 92.992 537.232 110.275 537.232 133.319C537.232 156.363 552.32 175.566 574.815 175.566Z" fill="#1E1E1E"/>
<path d="M769.043 61.9922V92.9918C755.601 92.9918 720.486 104.788 720.486 142.921V202.451H687.292V66.1072H720.486V70.2222C720.486 80.6469 714.725 92.9918 710.61 102.593L716.371 105.062C720.486 95.4608 724.876 82.0185 733.38 75.7089C747.645 64.4612 762.734 61.9922 769.043 61.9922Z" fill="#1E1E1E"/>
<path d="M950.652 61.9922C978.36 61.9922 1000.03 77.9035 1000.03 108.903V202.451H966.563V132.77C966.563 106.708 956.962 94.9122 937.21 94.9122C915.263 94.9122 896.883 106.708 896.883 132.77V202.176H863.688V65.8328H896.883V68.0275C896.883 79.0008 891.396 91.8945 887.281 102.319L893.042 104.788C897.157 94.3635 900.998 79.8239 909.776 72.9655C921.024 64.1869 933.095 61.9922 950.652 61.9922Z" fill="#1E1E1E"/>
<path d="M1091.93 206.84C1051.33 206.84 1022.8 174.195 1022.8 133.593C1022.8 92.9919 1051.33 62.2666 1091.93 62.2666C1110.31 62.2666 1124.31 68.5763 1134.18 79.2753C1139.94 85.3106 1141.04 96.5583 1143.78 104.24L1149.54 102.319C1147.07 94.3636 1142.14 84.762 1142.14 76.8063L1141.86 66.3816H1175.33V202.725H1141.86L1142.14 191.478C1142.14 183.248 1147.07 173.372 1149.54 165.965L1143.51 164.044C1141.04 171.726 1139.94 182.973 1134.46 189.009C1124.31 199.982 1110.31 206.84 1091.93 206.84ZM1093.85 175.566C1116.08 175.566 1131.16 155.54 1131.99 133.319C1131.99 109.452 1118.54 92.992 1093.85 92.992C1071.36 92.992 1056.27 110.275 1056.27 133.319C1056.27 156.363 1071.08 175.566 1093.85 175.566Z" fill="#1E1E1E"/>
<path d="M1275.19 142.372C1279.85 152.248 1279.85 165.965 1279.85 176.938H1286.16C1286.16 165.965 1286.16 152.248 1290.83 142.372L1326.21 66.1074H1367.09L1300.98 202.177C1296.86 210.681 1293.02 217.539 1288.9 226.044C1276.56 252.38 1263.94 270.486 1240.9 270.486H1203.86V237.291H1225.53C1241.99 237.291 1247.75 228.513 1255.71 213.973L1264.21 197.513L1198.92 66.1074H1239.8L1275.19 142.372Z" fill="#1E1E1E"/>
<path d="M800.317 61.9922V81.1955C799.769 82.0185 799.494 82.5672 798.946 83.3902C796.477 87.7795 796.202 88.3282 790.716 91.6202C789.893 92.1688 789.07 92.7175 787.972 92.9918H769.043V61.9922H800.317Z" fill="#1E1E1E"/>
<path d="M800.317 61.9922V81.1955C802.237 78.1779 804.158 74.8859 806.078 71.5939L811.016 73.7885C809.37 75.4345 808.547 77.9035 806.901 80.6468C805.529 82.8415 804.432 85.0361 803.06 88.3281C801.14 92.1688 800.591 95.7352 800.317 99.0272V202.451H833.237V61.9922H800.317Z" fill="#1E1E1E"/>
<path d="M799.22 31.2669C799.22 20.0192 807.176 12.3379 818.149 12.3379C829.122 12.3379 837.078 20.0192 837.078 31.2669C837.078 42.7889 829.122 50.1959 818.149 50.1959C807.176 50.1959 799.22 42.7889 799.22 31.2669Z" fill="#1E1E1E"/>
<defs>
<linearGradient id="paint0_linear_199_239" x1="110.159" y1="147.746" x2="197.934" y2="147.746" gradientUnits="userSpaceOnUse">
<stop stop-color="#FF6600" stop-opacity="0.82"/>
<stop offset="1" stop-color="#FF0099" stop-opacity="0.82"/>
</linearGradient>
<linearGradient id="paint1_linear_199_239" x1="1.00675" y1="141" x2="281.53" y2="141" gradientUnits="userSpaceOnUse">
<stop stop-color="#FF6600" stop-opacity="0.82"/>
<stop offset="1" stop-color="#FF0099" stop-opacity="0.82"/>
</linearGradient>
</defs>
</svg>
