<?xml version="1.0" encoding="utf-8"?>
<!-- Generator: Adobe Illustrator 26.0.1, SVG Export Plug-In . SVG Version: 6.00 Build 0)  -->
<svg version="1.1" id="Layer_1" xmlns="http://www.w3.org/2000/svg" xmlns:xlink="http://www.w3.org/1999/xlink" x="0px" y="0px"
	 viewBox="0 0 600 600" style="enable-background:new 0 0 600 600;" xml:space="preserve">
<style type="text/css">
	.st0{fill:url(#SVGID_1_);}
	.st1{fill:url(#SVGID_00000110443234816309815640000005240349996626352520_);}
</style>
<g>
	<g>
		<linearGradient id="SVGID_1_" gradientUnits="userSpaceOnUse" x1="90.8234" y1="302.4593" x2="122.8194" y2="302.4593">
			<stop  offset="0" style="stop-color:#FF6600;stop-opacity:0.82"/>
			<stop  offset="1" style="stop-color:#FF0099;stop-opacity:0.82"/>
		</linearGradient>
		<path class="st0" d="M90.8,302.1c0-9.1,5.8-15.9,16.2-15.9c10.6,0,15.7,6.8,15.7,15.9c0,9.1-5.2,16.6-15.7,16.6
			C96.6,318.7,90.8,311.2,90.8,302.1z"/>
		
			<linearGradient id="SVGID_00000176006716547750206850000006297984509782554021_" gradientUnits="userSpaceOnUse" x1="51.0353" y1="300" x2="153.2918" y2="300">
			<stop  offset="0" style="stop-color:#FF6600;stop-opacity:0.82"/>
			<stop  offset="1" style="stop-color:#FF0099;stop-opacity:0.82"/>
		</linearGradient>
		<path style="fill:url(#SVGID_00000176006716547750206850000006297984509782554021_);" d="M141.8,248.9H62.5
			c-6.3,0-11.5,5.1-11.5,11.5v79.3c0,6.3,5.1,11.5,11.5,11.5h16.1v-73h10.7v3.5c0,2.9-1.5,6.3-2.5,9.2l1.9,0.6
			c1-2.7,1.6-6.7,3.7-8.8c3.8-3.8,9-6,15.8-6c15.3,0,25.6,11.2,25.4,25.7c-0.3,14.1-10.5,26-25.3,26c-6.8,0-12.1-2.4-15.8-6.2
			c-2.1-2.1-2.8-6-3.8-8.9l-1.9,0.7c1,2.7,2.5,6.2,2.5,9.2v28.1h52.5c6.3,0,11.5-5.1,11.5-11.5v-79.3
			C153.3,254,148.2,248.9,141.8,248.9z M93,263.9c-0.2,0.9-0.5,1.6-1,2.3c-0.5,0.7-1.1,1.3-1.7,1.8c-0.7,0.5-1.4,1.1-2.1,1.5
			c-0.7,0.5-1.4,1-2,1.4c-0.6,0.5-1.2,1-1.6,1.5c-0.5,0.5-0.7,1.1-0.8,1.7c-0.4-0.9-0.9-1.8-1.5-2.8c-0.6-1-1.2-2.1-1.8-3.2
			c-0.6-1.1-1.1-2.2-1.5-3.3c-0.4-1.1-0.6-2.2-0.6-3.2c0-0.7,0.2-1.3,0.4-1.8c0.2-0.5,0.6-0.9,0.9-1.2c0.4-0.3,0.8-0.6,1.3-0.7
			c0.5-0.2,1-0.2,1.4-0.2c0.4,0,0.9,0.1,1.3,0.2c0.4,0.1,0.8,0.4,1.1,0.6c0.3,0.3,0.6,0.6,0.7,1c0.2,0.4,0.2,0.9,0.2,1.4
			c0.2-0.5,0.4-1,0.6-1.4c0.3-0.4,0.6-0.7,0.9-0.9c0.3-0.2,0.7-0.3,1.1-0.4c0.4,0,0.8,0,1.2,0.1c0.5,0.1,1,0.3,1.5,0.6
			c0.5,0.3,0.9,0.7,1.2,1.2c0.3,0.5,0.6,1,0.7,1.6C93.2,262.5,93.2,263.2,93,263.9z"/>
	</g>
	<g>
		<path d="M305.9,253.1c0.4,0,0.8,0.1,1.2,0.2c0.4,0.1,0.7,0.3,1,0.6c0.3,0.2,0.5,0.5,0.6,0.9c0.1,0.4,0.2,0.8,0.2,1.2
			c0.1-0.5,0.3-0.9,0.5-1.2c0.2-0.3,0.5-0.6,0.8-0.8c0.3-0.2,0.6-0.3,1-0.3c0.4,0,0.7,0,1.1,0.1c0.5,0.1,0.9,0.3,1.3,0.5
			c0.4,0.3,0.8,0.6,1.1,1c0.3,0.4,0.5,0.9,0.6,1.5c0.1,0.6,0.1,1.2,0,1.8c-0.2,0.7-0.5,1.4-0.9,2c-0.4,0.6-1,1.1-1.5,1.6
			c-0.6,0.5-1.2,0.9-1.9,1.4c-0.7,0.4-1.3,0.9-1.8,1.3c-0.6,0.4-1,0.9-1.4,1.3c-0.4,0.5-0.6,1-0.7,1.5c-0.3-0.8-0.8-1.6-1.3-2.5
			c-0.6-0.9-1.1-1.8-1.6-2.8c-0.5-1-1-1.9-1.4-2.9c-0.4-1-0.6-1.9-0.5-2.8c0-0.6,0.1-1.2,0.4-1.6c0.2-0.4,0.5-0.8,0.9-1.1
			c0.3-0.3,0.7-0.5,1.2-0.6C305,253.1,305.4,253.1,305.9,253.1z"/>
		<path d="M190.5,293.2v29.1h-13v-69.6h26c14.8,0,27,3.2,27,19.9c0,16.7-12.1,20.7-28.1,20.7C199.8,293.3,195.6,293.3,190.5,293.2z
			 M201.4,282.4c8.5,0,16.4-0.7,16.4-9.7c0-8.7-7.3-8.8-16.4-8.8h-10.9v18.6H201.4z"/>
		<path d="M259.5,324c-14.8,0-25.2-11.9-25.2-26.7c0-14.8,10.4-26,25.2-26c6.7,0,11.8,2.3,15.4,6.2c2.1,2.2,2.5,6.3,3.5,9.1l2.1-0.7
			c-0.9-2.9-2.7-6.4-2.7-9.3l-0.1-3.8H290v49.7h-12.2l0.1-4.1c0-3,1.8-6.6,2.7-9.3l-2.2-0.7c-0.9,2.8-1.3,6.9-3.3,9.1
			C271.4,321.5,266.2,324,259.5,324z M260.2,312.6c8.1,0,13.6-7.3,13.9-15.4c0-8.7-4.9-14.7-13.9-14.7c-8.2,0-13.7,6.3-13.7,14.7
			C246.5,305.6,252,312.6,260.2,312.6z"/>
		<path d="M331,271.2v11.3c-4.9,0-17.7,4.3-17.7,18.2v21.7h-12.1v-49.7h12.1v1.5c0,3.8-2.1,8.3-3.6,11.8l2.1,0.9
			c1.5-3.5,3.1-8.4,6.2-10.7C323.2,272.1,328.7,271.2,331,271.2z"/>
		<path d="M397.2,271.2c10.1,0,18,5.8,18,17.1v34.1H403V297c0-9.5-3.5-13.8-10.7-13.8c-8,0-14.7,4.3-14.7,13.8v25.3h-12.1v-49.7
			h12.1v0.8c0,4-2,8.7-3.5,12.5l2.1,0.9c1.5-3.8,2.9-9.1,6.1-11.6C386.4,272,390.8,271.2,397.2,271.2z"/>
		<path d="M448.7,324c-14.8,0-25.2-11.9-25.2-26.7c0-14.8,10.4-26,25.2-26c6.7,0,11.8,2.3,15.4,6.2c2.1,2.2,2.5,6.3,3.5,9.1l2.1-0.7
			c-0.9-2.9-2.7-6.4-2.7-9.3l-0.1-3.8h12.2v49.7h-12.2l0.1-4.1c0-3,1.8-6.6,2.7-9.3l-2.2-0.7c-0.9,2.8-1.3,6.9-3.3,9.1
			C460.5,321.5,455.4,324,448.7,324z M449.4,312.6c8.1,0,13.6-7.3,13.9-15.4c0-8.7-4.9-14.7-13.9-14.7c-8.2,0-13.7,6.3-13.7,14.7
			C435.7,305.6,441.1,312.6,449.4,312.6z"/>
		<path d="M515.5,300.5c1.7,3.6,1.7,8.6,1.7,12.6h2.3c0-4,0-9,1.7-12.6l12.9-27.8H549l-24.1,49.6c-1.5,3.1-2.9,5.6-4.4,8.7
			c-4.5,9.6-9.1,16.2-17.5,16.2h-13.5v-12.1h7.9c6,0,8.1-3.2,11-8.5l3.1-6l-23.8-47.9h14.9L515.5,300.5z"/>
		<g>
			<g>
				<path d="M342.4,271.2v7c-0.2,0.3-0.3,0.5-0.5,0.8c-0.9,1.6-1,1.8-3,3c-0.3,0.2-0.6,0.4-1,0.5H331v-11.3H342.4z"/>
				<path d="M342.4,271.2v7c0.7-1.1,1.4-2.3,2.1-3.5l1.8,0.8c-0.6,0.6-0.9,1.5-1.5,2.5c-0.5,0.8-0.9,1.6-1.4,2.8
					c-0.7,1.4-0.9,2.7-1,3.9v37.7h12v-51.2H342.4z"/>
			</g>
		</g>
		<path d="M342,260c0-4.1,2.9-6.9,6.9-6.9c4,0,6.9,2.8,6.9,6.9c0,4.2-2.9,6.9-6.9,6.9C344.9,266.9,342,264.2,342,260z"/>
	</g>
</g>
</svg>
