<svg width="137" height="137" viewBox="0 0 137 137" fill="none" xmlns="http://www.w3.org/2000/svg">
<path d="M53.2573 71.1002C53.2573 58.9832 60.9802 49.9287 74.8282 49.9287C88.9425 49.9287 95.7334 58.9832 95.7334 71.1002C95.7334 83.2171 88.8094 93.2037 74.8282 93.2037C60.9802 93.2037 53.2573 83.2171 53.2573 71.1002Z" fill="white"/>
<path d="M121.011 0.262207H15.5553C7.17735 0.262207 0.262207 7.05932 0.262207 15.589V121.278C0.262207 129.674 7.04437 136.604 15.5553 136.604H36.9657V39.3123H51.1949V43.977C51.1949 47.842 49.2001 52.3734 47.8703 56.2385L50.397 57.0381C51.7268 53.4396 52.5247 48.1086 55.3174 45.3098C60.3708 40.2453 67.2859 37.3132 76.3288 37.3132C96.6753 37.3132 110.373 52.2401 110.107 71.5653C109.708 90.3573 96.1433 106.217 76.4618 106.217C67.4189 106.217 60.3708 103.019 55.4504 97.9541C52.6577 95.1553 51.7268 89.9575 50.397 86.0924L47.8703 87.0254C49.2001 90.6239 51.1949 95.2886 51.1949 99.2869V136.738H121.011C129.389 136.738 136.304 129.94 136.304 121.411V15.7223C136.304 7.05933 129.522 0.262207 121.011 0.262207ZM56.1153 20.2537C55.8493 21.4532 55.4504 22.3862 54.7855 23.3191C54.1205 24.2521 53.3226 25.0517 52.5247 25.7181C51.5939 26.3845 50.663 27.1841 49.7321 27.7172C48.8012 28.3836 47.8703 29.05 47.0724 29.5831C46.2745 30.2495 45.4766 30.9159 44.9447 31.5822C44.2798 32.2486 44.0138 33.0483 43.8808 33.848C43.3489 32.6485 42.684 31.449 41.8861 30.1162C41.0882 28.7834 40.2902 27.3174 39.4923 25.8514C38.6944 24.3853 38.0295 22.9193 37.4976 21.4532C36.9657 19.9872 36.6997 18.5211 36.6997 17.1884C36.6997 16.2554 36.9657 15.4558 37.2316 14.7894C37.4976 14.123 38.0295 13.5899 38.4285 13.1901C38.9604 12.7902 39.4923 12.3904 40.1573 12.2571C40.8222 11.9906 41.4871 11.9906 42.019 11.9906C42.551 11.9906 43.2159 12.1238 43.7478 12.2571C44.2798 12.3904 44.8117 12.7902 45.2106 13.0568C45.6096 13.4566 46.0085 13.8564 46.1415 14.3896C46.4075 14.9227 46.4075 15.589 46.4075 16.2554C46.6735 15.589 46.9394 14.9227 47.2054 14.3896C47.6043 13.8564 48.0033 13.4566 48.4022 13.1901C48.8012 12.9235 49.3331 12.7902 49.8651 12.657C50.397 12.657 50.9289 12.6569 51.4609 12.7902C52.1258 12.9235 52.7907 13.1901 53.4556 13.5899C54.1205 13.9897 54.6525 14.5228 55.0514 15.1892C55.4504 15.8556 55.8493 16.522 55.9823 17.3217C56.3813 18.3879 56.3813 19.3208 56.1153 20.2537Z" fill="white"/>
</svg>
