<?xml version="1.0" encoding="utf-8"?>
<!-- Generator: Adobe Illustrator 26.0.1, SVG Export Plug-In . SVG Version: 6.00 Build 0)  -->
<svg version="1.1" id="Layer_1" xmlns="http://www.w3.org/2000/svg" xmlns:xlink="http://www.w3.org/1999/xlink" x="0px" y="0px"
	 viewBox="0 0 1368 282" style="enable-background:new 0 0 1368 282;" xml:space="preserve">
<style type="text/css">
	.st0{fill:url(#SVGID_1_);}
	.st1{fill:url(#SVGID_00000147180644743614692700000013556187947198827966_);}
	.st2{fill:#121212;}
</style>
<g>
	<g>
		
			<linearGradient id="SVGID_1_" gradientUnits="userSpaceOnUse" x1="160.3704" y1="338.2596" x2="245.5968" y2="338.2596" gradientTransform="matrix(1 0 0 1 0 -190)">
			<stop  offset="0" style="stop-color:#FF6600;stop-opacity:0.82"/>
			<stop  offset="1" style="stop-color:#FF0099;stop-opacity:0.82"/>
		</linearGradient>
		<path class="st0" d="M160.3,147.3c0-24.2,15.4-42.4,43.2-42.4c28.2,0,41.8,18.1,41.8,42.4s-13.9,44.2-41.8,44.2
			C175.7,191.5,160.3,171.6,160.3,147.3z"/>
		
			<linearGradient id="SVGID_00000047032058331821600990000007878360555762881692_" gradientUnits="userSpaceOnUse" x1="54.2693" y1="332" x2="326.7617" y2="332" gradientTransform="matrix(1 0 0 1 0 -190)">
			<stop  offset="0" style="stop-color:#FF6600;stop-opacity:0.82"/>
			<stop  offset="1" style="stop-color:#FF0099;stop-opacity:0.82"/>
		</linearGradient>
		<path style="fill:url(#SVGID_00000047032058331821600990000007878360555762881692_);" d="M296.1,5.6H84.9
			c-16.8,0-30.6,13.6-30.6,30.6v211.2c0,16.8,13.6,30.6,30.6,30.6h42.9V83.7h28.5V93c0,7.7-4,16.8-6.7,24.5l5.1,1.6
			c2.7-7.2,4.3-17.8,9.9-23.4c10.1-10.1,24-16,42.1-16c40.8,0,68.2,29.8,67.7,68.5c-0.8,37.6-28,69.3-67.4,69.3
			c-18.1,0-32.2-6.4-42.1-16.5c-5.6-5.6-7.5-16-10.1-23.7l-5.1,1.9c2.7,7.2,6.7,16.5,6.7,24.5v74.8h139.8
			c16.8,0,30.6-13.6,30.6-30.6V36.5C326.8,19.2,313.2,5.6,296.1,5.6z M166.1,45.6c-0.5,2.4-1.3,4.3-2.7,6.1
			c-1.3,1.9-2.9,3.5-4.5,4.8c-1.9,1.3-3.7,2.9-5.6,4c-1.9,1.3-3.7,2.7-5.3,3.7c-1.6,1.3-3.2,2.7-4.3,4c-1.3,1.3-1.9,2.9-2.1,4.5
			c-1.1-2.4-2.4-4.8-4-7.5s-3.2-5.6-4.8-8.5c-1.6-2.9-2.9-5.9-4-8.8c-1.1-2.9-1.6-5.9-1.6-8.5c0-1.9,0.5-3.5,1.1-4.8
			c0.5-1.3,1.6-2.4,2.4-3.2c1.1-0.8,2.1-1.6,3.5-1.9c1.3-0.5,2.7-0.5,3.7-0.5c1.1,0,2.4,0.3,3.5,0.5c1.1,0.3,2.1,1.1,2.9,1.6
			c0.8,0.8,1.6,1.6,1.9,2.7c0.5,1.1,0.5,2.4,0.5,3.7c0.5-1.3,1.1-2.7,1.6-3.7c0.8-1.1,1.6-1.9,2.4-2.4c0.8-0.5,1.9-0.8,2.9-1.1
			c1.1,0,2.1,0,3.2,0.3c1.3,0.3,2.7,0.8,4,1.6c1.3,0.8,2.4,1.9,3.2,3.2c0.8,1.3,1.6,2.7,1.9,4.3C166.7,41.8,166.7,43.7,166.1,45.6z"
			/>
	</g>
	<g>
		<path class="st2" d="M743.8,49.7c1.2,0,2.3,0.3,3.5,0.6c1.2,0.3,2,0.9,2.9,1.7c0.9,0.6,1.4,1.4,1.7,2.6c0.3,1.2,0.6,2.3,0.6,3.5
			c0.3-1.4,0.9-2.6,1.4-3.5c0.6-0.9,1.4-1.7,2.3-2.3c0.9-0.6,1.7-0.9,2.9-0.9s2,0,3.2,0.3c1.4,0.3,2.6,0.9,3.7,1.4
			c1.2,0.9,2.3,1.7,3.2,2.9c0.9,1.2,1.4,2.6,1.7,4.3c0.3,1.7,0.3,3.5,0,5.2c-0.6,2-1.4,4-2.6,5.8c-1.2,1.7-2.9,3.2-4.3,4.6
			c-1.7,1.4-3.5,2.6-5.5,4c-2,1.2-3.7,2.6-5.2,3.7c-1.7,1.2-2.9,2.6-4,3.7c-1.2,1.4-1.7,2.9-2,4.3c-0.9-2.3-2.3-4.6-3.7-7.2
			c-1.7-2.6-3.2-5.2-4.6-8.1s-2.9-5.5-4-8.4c-1.2-2.9-1.7-5.5-1.4-8.1c0-1.7,0.3-3.5,1.2-4.6c0.6-1.2,1.4-2.3,2.6-3.2
			c0.9-0.9,2-1.4,3.5-1.7C741.2,49.7,742.3,49.7,743.8,49.7z"/>
		<path class="st2" d="M1175.4,92.3c-47.9,0-79.4,29-79.4,74.5c0,45.5,31.5,75.3,79.4,75.3c48.2,0,79.6-31.7,79.6-75.3
			C1255.3,123.5,1223.6,92.3,1175.4,92.3z M1207.4,188.3c-4,4.8-11.3,12.4-28.1,23.7c-1.1,0.8-2.6,1.1-3.7,1.1
			c-1.1,0-2.8-0.5-3.7-1.1c-16.7-11.3-24.1-18.8-28.1-23.7c-8.5-10.2-12.5-20.7-12.5-32c0-12.9,10.8-23.7,23.5-23.7
			c8.8,0,15,4.6,18.7,8.6c0.3,0.3,0.6,0.5,0.9,0.5c0.3,0,0.6,0.3,1.1,0.3c0.3,0,0.6,0,1.1-0.3c0.3,0,0.6-0.3,0.9-0.5
			c4-4,10.2-8.6,18.7-8.6c13,0,23.5,10.5,23.5,23.7C1220.2,167.6,1215.9,178.1,1207.4,188.3z"/>
		<path class="st2" d="M426.9,155.7v81.9h-36.6V41.9h73.3c41.7,0,76,8.9,76,55.9c0,47-34.1,58.2-79.1,58.2
			C453.2,156,441.2,156,426.9,155.7z M457.7,125.2c24,0,46.1-2,46.1-27.4c0-24.6-20.4-24.9-46.1-24.9h-30.8v52.3H457.7z"/>
		<path class="st2" d="M631,93.6c48.4,0,80,30.8,80,73.8c0,43.3-31.6,74.7-80,74.7c-48.1,0-79.7-29.6-79.7-74.7
			C551.3,122.4,582.9,93.6,631,93.6z M631,209.1c31,0,43.6-18.7,43.6-41.7c0-22.9-12.6-40.8-43.6-40.8s-43.3,17.9-43.3,40.8
			C587.7,190.4,600.3,209.1,631,209.1z"/>
		<path class="st2" d="M841.4,97.8v30.9c-34.7,0-74,11.9-74,49.7v59.2h-34.1V101.9h34.1v4.1c0,10.3-5.9,22.8-10.1,32.3l5.9,2.4
			c4.2-9.5,8.7-23.1,17.3-29.3C795.4,100.3,814,97.8,841.4,97.8z"/>
		<path class="st2" d="M879.7,49.7h2.2c9.7,0,17.5,7.8,17.5,17.5v0c0,9.7-7.8,17.5-17.5,17.5h-2.2c-9.7,0-17.5-7.8-17.5-17.5v0
			C862.2,57.5,870,49.7,879.7,49.7z M864.2,97.8H898v139.8h-33.8V97.8z"/>
		<path class="st2" d="M1020.5,93.6c28.5,0,50.6,16.2,50.6,48.1v95.9h-34.4v-71.3c0-26.8-9.8-38.9-30.2-38.9
			c-22.4,0-41.4,12-41.4,38.9v71.3H931V97.8h34.1v2.2c0,11.2-5.6,24.6-9.8,35.2l5.9,2.5c4.2-10.6,8.1-25.7,17.1-32.7
			C990,95.9,1002.3,93.6,1020.5,93.6z"/>
		<path class="st2" d="M1294,49.7h2.2c9.7,0,17.5,7.8,17.5,17.5v0c0,9.7-7.8,17.5-17.5,17.5h-2.2c-9.7,0-17.5-7.8-17.5-17.5v0
			C1276.5,57.5,1284.4,49.7,1294,49.7z M1278.5,97.8h33.8v139.8h-33.8V97.8z"/>
	</g>
</g>
</svg>
