<?xml version="1.0" encoding="utf-8"?>
<!-- Generator: Adobe Illustrator 26.0.1, SVG Export Plug-In . SVG Version: 6.00 Build 0)  -->
<svg version="1.1" id="Layer_1" xmlns="http://www.w3.org/2000/svg" xmlns:xlink="http://www.w3.org/1999/xlink" x="0px" y="0px"
	 viewBox="0 0 1368 282" style="enable-background:new 0 0 1368 282;" xml:space="preserve">
<style type="text/css">
	.st0{fill:url(#SVGID_1_);}
	.st1{fill:url(#SVGID_00000129902024900201909220000007884686768867710887_);}
	.st2{fill:#121212;}
</style>
<g>
	<g>
		
			<linearGradient id="SVGID_1_" gradientUnits="userSpaceOnUse" x1="189.4636" y1="136.7136" x2="275.0558" y2="136.7136" gradientTransform="matrix(1 0 0 -1 0 284)">
			<stop  offset="0" style="stop-color:#FF6600;stop-opacity:0.82"/>
			<stop  offset="1" style="stop-color:#FF0099;stop-opacity:0.82"/>
		</linearGradient>
		<path class="st0" d="M189.5,146.4c0-24.3,15.5-42.5,43.3-42.5c28.4,0,42,18.2,42,42.5s-13.9,44.4-42,44.4
			C205,190.8,189.5,170.7,189.5,146.4z"/>
		
			<linearGradient id="SVGID_00000111879512563559310860000000976245590150133406_" gradientUnits="userSpaceOnUse" x1="82.995" y1="143" x2="356.6567" y2="143" gradientTransform="matrix(1 0 0 -1 0 284)">
			<stop  offset="0" style="stop-color:#FF6600;stop-opacity:0.82"/>
			<stop  offset="1" style="stop-color:#FF0099;stop-opacity:0.82"/>
		</linearGradient>
		<path style="fill:url(#SVGID_00000111879512563559310860000000976245590150133406_);" d="M325.9,4H113.8C96.9,4,83,17.7,83,34.8
			v212.1c0,16.9,13.6,30.8,30.8,30.8h43.1V82.4h28.6v9.4c0,7.8-4,16.9-6.7,24.6l5.1,1.6c2.7-7.2,4.3-17.9,9.9-23.5
			c10.2-10.2,24.1-16.1,42.3-16.1c40.9,0,68.5,30,67.9,68.7c-0.8,37.7-28.1,69.6-67.7,69.6c-18.2,0-32.4-6.4-42.3-16.6
			c-5.6-5.6-7.5-16.1-10.2-23.8l-5.1,1.9c2.7,7.2,6.7,16.6,6.7,24.6V278h140.4c16.9,0,30.8-13.6,30.8-30.8V35.1
			C356.7,17.7,343,4,325.9,4z M195.3,44.2c-0.5,2.4-1.3,4.3-2.7,6.2c-1.3,1.9-2.9,3.5-4.5,4.8c-1.9,1.3-3.7,2.9-5.6,4
			c-1.9,1.3-3.7,2.7-5.4,3.7c-1.6,1.3-3.2,2.7-4.3,4c-1.3,1.3-1.9,2.9-2.1,4.5c-1.1-2.4-2.4-4.8-4-7.5c-1.6-2.7-3.2-5.6-4.8-8.6
			c-1.6-2.9-2.9-5.9-4-8.8c-1.1-2.9-1.6-5.9-1.6-8.6c0-1.9,0.5-3.5,1.1-4.8c0.5-1.3,1.6-2.4,2.4-3.2c1.1-0.8,2.1-1.6,3.5-1.9
			c1.3-0.5,2.7-0.5,3.7-0.5s2.4,0.3,3.5,0.5c1.1,0.3,2.1,1.1,2.9,1.6c0.8,0.8,1.6,1.6,1.9,2.7c0.5,1.1,0.5,2.4,0.5,3.7
			c0.5-1.3,1.1-2.7,1.6-3.7c0.8-1.1,1.6-1.9,2.4-2.4c0.8-0.5,1.9-0.8,2.9-1.1c1.1,0,2.1,0,3.2,0.3c1.3,0.3,2.7,0.8,4,1.6
			c1.3,0.8,2.4,1.9,3.2,3.2c0.8,1.3,1.6,2.7,1.9,4.3C195.9,40.4,195.9,42.3,195.3,44.2z"/>
	</g>
	<path class="st2" d="M744.7,47.3c1.1,0,2.1,0.3,3.2,0.5c1.1,0.3,1.9,0.8,2.7,1.6c0.8,0.5,1.3,1.3,1.6,2.4s0.5,2.1,0.5,3.2
		c0.3-1.3,0.8-2.4,1.3-3.2c0.5-0.8,1.3-1.6,2.1-2.1s1.6-0.8,2.7-0.8c1.1,0,1.9,0,2.9,0.3c1.3,0.3,2.4,0.8,3.5,1.3
		c1.1,0.8,2.1,1.6,2.9,2.7c0.8,1.1,1.3,2.4,1.6,4c0.3,1.6,0.3,3.2,0,4.8c-0.5,1.9-1.3,3.7-2.4,5.4c-1.1,1.6-2.7,2.9-4,4.3
		c-1.6,1.3-3.2,2.4-5.1,3.7c-1.9,1.1-3.5,2.4-4.8,3.5c-1.6,1.1-2.7,2.4-3.7,3.5c-1.1,1.3-1.6,2.7-1.9,4c-0.8-2.1-2.1-4.3-3.5-6.7
		c-1.6-2.4-2.9-4.8-4.3-7.5c-1.3-2.7-2.7-5.1-3.7-7.8c-1.1-2.7-1.6-5.1-1.3-7.5c0-1.6,0.3-3.2,1.1-4.3c0.5-1.1,1.3-2.1,2.4-2.9
		c0.8-0.8,1.9-1.3,3.2-1.6C742.3,47.3,743.4,47.3,744.7,47.3z"/>
	<path class="st2" d="M863.4,65.7c0-11,7.8-18.5,18.5-18.5c10.7,0,18.5,7.5,18.5,18.5c0,11.2-7.8,18.5-18.5,18.5
		C871.2,84.2,863.4,77,863.4,65.7z"/>
	<path class="st2" d="M1248.1,65.7c0-11,7.8-18.5,18.5-18.5c10.7,0,18.5,7.5,18.5,18.5c0,11.2-7.8,18.5-18.5,18.5
		C1255.8,84.2,1248.1,77,1248.1,65.7z"/>
	<path class="st2" d="M449,154.8v82.3h-34.5V40.4h69c39.2,0,71.6,9,71.6,56.2S522.9,155,480.6,155C473.7,155,462.4,155,449,154.8z
		 M477.9,124.1c22.6,0,43.4-2,43.4-27.5c0-24.7-19.2-25-43.4-25h-29v52.5H477.9z"/>
	<path class="st2" d="M641.1,92.4c45.5,0,75.3,30.9,75.3,74.2c0,43.5-29.7,75-75.3,75c-45.3,0-75-29.8-75-75
		C566.1,121.3,595.8,92.4,641.1,92.4z M641.1,208.4c29.2,0,41.1-18.8,41.1-41.9c0-23-11.8-41-41.1-41c-29.2,0-40.8,18-40.8,41
		C600.3,189.6,612.1,208.4,641.1,208.4z"/>
	<path class="st2" d="M897.9,92.4v144.7h-32.1V130.5c0.3-3.4,0.8-7.1,2.7-11c1.3-3.4,2.4-5.6,3.7-7.9c1.6-2.8,2.4-5.4,4-7.1
		l-4.8-2.2c-1.9,3.4-3.7,6.8-5.6,9.9c-0.5,0.9-0.8,1.4-1.3,2.3c-3.2,4.3-2.8,4.5-8,8.5c-0.8,0.6-1.6,1.1-2.7,1.4h-17.7v0.1
		c-32.6,0-66.6,12.4-66.6,51.4v61.3h-32.1V96.6h32.1v4.2c0,10.7-5.5,23.6-9.5,33.4l5.5,2.5c4-9.8,8.2-23.9,16.3-30.3
		c13.8-11.4,28.1-14,53.4-14H897.9z"/>
	<path class="st2" d="M1007.7,92.4c26.8,0,47.6,16.3,47.6,48.3v96.4H1023v-71.6c0-27-9.2-39.1-28.4-39.1c-21.1,0-39,12.1-39,39.1
		v71.6h-32.1V96.6h32.1v2.2c0,11.2-5.3,24.7-9.2,35.4l5.5,2.5c3.9-10.7,7.6-25.8,16.1-32.9C979,94.6,990.6,92.4,1007.7,92.4z"/>
	<path class="st2" d="M1153.2,92.4c-45.3,0-75,28.9-75,74.2c0,45.2,29.7,75,75,75c45.5,0,75.3-31.5,75.3-75
		C1228.5,123.3,1198.8,92.4,1153.2,92.4z M1183.5,187.8c-3.8,4.8-10.6,12.4-26.5,23.5c-1.1,0.8-2.3,1.2-3.6,1.2s-2.5-0.4-3.6-1.2
		c-15.8-11.1-22.7-18.7-26.5-23.5c-8-10.1-11.9-20.6-11.8-31.9c0.1-12.9,10.1-23.4,22.3-23.4c8.2,0,14.1,4.4,17.8,8.5
		c0.2,0.3,0.5,0.4,0.8,0.6c0.3,0.1,0.6,0.2,1,0.2c0.3,0,0.6-0.1,0.9-0.2c0.3-0.1,0.6-0.3,0.8-0.6c3.7-4.1,9.5-8.5,17.8-8.5
		c12.2,0,22.2,10.5,22.3,23.4C1195.3,167.2,1191.5,177.6,1183.5,187.8z"/>
	<path class="st2" d="M1250.6,96.6h31.8v140.5h-31.8V96.6z"/>
</g>
</svg>
