<svg width="239" height="213" viewBox="0 0 239 213" fill="none" xmlns="http://www.w3.org/2000/svg">
<path d="M34.3809 131.754C46.7027 144.719 58.8493 157.202 72.929 168.748C85.3986 178.967 98.809 188.371 112.038 198.03C113.923 199.407 115.802 200.788 117.674 202.175L119.002 203.535C120.158 205.102 121.727 205.651 122.676 205.476C122.786 205.459 122.898 205.435 123.012 205.403C123.335 205.309 123.691 205.139 124.096 204.832L124.11 204.821C126.614 202.876 129.122 200.931 131.631 198.986C146.177 187.722 160.703 176.528 174.52 164.673C186.024 154.805 197.055 144.467 207.194 133.312C212.046 127.976 216.465 122.286 220.199 116.192C231.049 99.0312 234.931 77.6159 228.858 57.8334C228.447 56.4141 227.985 54.9899 227.483 53.5866C222.384 39.5092 213.435 26.5528 201.68 16.9312C196.506 12.7327 190.748 9.22424 184.489 6.86197C179.825 5.10047 174.888 4.00043 169.87 3.75636C169.176 3.72155 168.508 3.64782 168.009 3.53566C167.511 3.42328 167.223 3.27919 167.218 3.11723C167.213 2.95587 167.493 2.78671 167.998 2.65497C168.503 2.52356 169.192 2.4446 169.908 2.44287C175.122 2.42694 180.336 3.31273 185.311 4.91651C190.844 6.69779 196.07 9.33552 200.907 12.5476C201.274 13.6198 201.992 14.7341 203.661 16.3371C204.514 17.1559 205.793 18.2882 206.819 19.036C207.741 19.7057 208.5 20.1412 209.223 20.5668C209.978 21.0129 210.69 21.4446 211.474 22.1439C212.802 23.3301 214.16 24.3774 215.56 25.5266C216.069 25.945 216.584 26.3777 217.103 26.8356C220.766 31.0051 224.056 35.5154 226.917 40.2964C227.918 42.2065 228.772 43.9914 229.526 45.4884C230.205 46.8386 230.895 48.0286 231.597 49.2394C231.955 50.0322 232.297 50.8219 232.631 51.6308C233.238 53.0968 233.805 54.5935 234.321 56.0939C235.631 59.8979 236.672 63.814 237.396 67.8043C237.894 72.1889 238.148 76.8257 237.805 82.8092C237.65 85.3888 237.292 87.9132 236.831 90.3127C236.152 93.8567 235.249 97.1147 234.512 99.9773C234.021 101.893 233.274 103.839 232.457 105.745C231.363 108.301 230.149 110.762 229.283 113.13C228.745 114.606 228.245 115.992 227.765 117.254C226.994 119.274 226.255 121.021 225.382 122.467C223.732 125.195 222.346 127.579 221.068 129.659C219.527 132.161 218.153 134.206 216.639 135.739C216.409 135.972 216.139 136.236 215.833 136.531C215.205 137.135 214.421 137.88 213.49 138.802C212.094 140.181 210.396 141.961 208.455 144.269C207.312 145.628 206.32 146.98 205.337 148.299C203.907 150.219 202.495 152.073 200.669 153.746C200.396 153.996 200.07 154.216 199.773 154.415C199.395 154.669 199.064 154.889 198.949 155.1C198.61 155.718 198.001 156.632 197.334 157.621C196.845 158.348 196.322 159.117 195.854 159.842C191.324 164.386 186.681 168.808 181.959 173.131C179.796 175.111 177.615 177.072 175.422 179.013C174.091 179.764 172.752 180.552 171.388 181.44C169.606 182.601 167.46 184.298 164.68 186.46C162.635 188.05 160.244 189.894 157.403 191.958C152.145 195.779 146.986 199.979 143.764 202.773C143.083 203.363 142.398 203.96 141.668 204.597C140.688 205.451 139.619 206.382 138.356 207.473C136.491 209.084 134.195 211.05 131.107 213.651L131.118 213.642C130.055 214.526 128.754 215.373 127.192 215.999C126.368 216.33 125.509 216.582 124.644 216.747C117.873 217.991 112.307 214.185 109.552 210.326L110.662 211.462C108.588 209.936 106.708 208.541 105.039 207.303C104.954 207.24 104.869 207.177 104.785 207.114C102.63 205.516 100.836 204.185 99.45 203.181C97.0776 201.462 94.1775 199.333 91.2688 197.182C86.7164 193.819 82.1503 190.393 79.5352 188.489C78.6034 187.811 77.6228 187.105 76.564 186.337C73.6338 184.212 70.0952 181.632 65.355 177.882C60.3826 173.94 57.4245 171.33 54.4258 168.538C53.2072 167.401 52.2673 166.245 51.3045 165.049C49.9396 163.352 48.5273 161.579 46.2112 159.626C45.6707 159.17 45.0735 158.706 44.4498 158.217C43.3051 157.321 42.0688 156.343 40.9372 155.2C40.5425 154.801 40.2311 154.412 39.9265 154.03C39.5913 153.609 39.2638 153.196 38.8398 152.784C37.2554 151.245 35.7055 149.754 34.3377 148.418C32.5737 146.695 31.1129 145.229 30.2601 144.267C28.8181 142.64 27.1266 140.987 25.4192 139.289C25.3256 139.196 25.2319 139.103 25.1382 139.009C23.7381 137.609 22.352 136.17 21.1076 134.696C17.5327 130.474 12.6843 124.562 8.34257 117.851C6.70256 115.311 5.60441 112.978 4.34852 109.925C3.57616 108.03 2.74196 105.843 1.79385 103.109C1.25602 101.554 0.663626 100.291 0.13455 99.1016C-0.349624 98.0135 -0.783852 96.9713 -1.03384 95.8646C-1.25553 94.8803 -1.18846 94.2028 -1.11999 93.5674C-1.04195 92.8609 -0.965696 92.1958 -1.23869 91.1851C-1.38336 90.6469 -1.64014 90.0102 -1.93293 89.2407C-2.04859 88.9368 -2.16973 88.6113 -2.29137 88.2654C-2.24108 88.2751 -2.19827 88.2719 -2.16642 88.2664C-1.94166 88.2266 -2.01588 87.1515 -2.05651 86.0963C-2.07337 85.6753 -2.08652 85.2566 -2.08026 84.9112C-2.0646 83.6371 -2.29061 81.274 -2.40556 79.4604C-2.45714 78.693 -2.41997 77.9931 -2.36347 77.1795C-2.31264 76.4571 -2.2468 75.6457 -2.19581 74.6131C-2.16638 74.0237 -2.09236 73.5739 -2.02887 73.202C-1.98281 72.933 -1.94211 72.7044 -1.92632 72.4918C-1.91265 72.3078 -1.97274 72.1567 -2.03992 71.9862C-2.08825 71.8635 -2.14034 71.7299 -2.17067 71.5669C-2.24339 71.1781 -2.24389 70.6812 -2.19363 70.3356C-2.17051 70.176 -2.13688 70.0508 -2.10321 69.9268C-2.06393 69.7823 -2.02423 69.6388 -1.99915 69.439C-1.88376 68.5209 -1.8767 67.6272 -1.85133 66.6894C-1.82318 65.6603 -1.77415 64.5891 -1.52691 63.4187C-1.44941 63.0527 -1.3387 62.6673 -1.22851 62.295C-1.11325 61.9052 -0.998272 61.5274 -0.925367 61.2015C-0.63106 59.8859 -0.524722 58.6057 -0.404566 57.436C-0.332622 56.7367 -0.25416 56.0702 -0.127532 55.4568C-0.112947 55.3863 -0.0978716 55.317 -0.0821041 55.2485C0.201029 54.025 0.205036 53.3251 0.206957 52.8053C0.208505 52.5362 0.210708 52.3158 0.257629 52.0985C0.322272 51.9057 0.389444 51.7109 0.456568 51.5207C0.525745 51.3486 0.597823 51.171 0.648166 50.9989C0.65199 50.9859 0.655283 50.9729 0.659062 50.9599C1.04989 49.9018 1.47573 48.8759 1.91737 47.8699C2.91187 45.6067 3.98311 43.4318 5.00287 41.0777C5.22278 40.5706 5.39524 40.0296 5.57776 39.4786C5.80102 38.8043 6.03857 38.1158 6.38868 37.4711C7.22433 35.9321 8.2161 34.4633 9.23159 33.0553C10.7622 30.9307 12.3431 28.9503 13.5632 26.945C13.9642 26.2853 14.3305 25.6114 14.7044 24.9429C14.9133 24.5697 15.1244 24.1977 15.3501 23.8261C15.3763 23.9644 15.4244 24.0653 15.4693 24.1593C15.5618 24.3533 15.6407 24.5184 15.4974 24.9253C15.1573 25.8874 14.8692 27.0311 15.2086 27.1355C15.3006 27.1641 15.3651 27.246 15.4289 27.3301C15.5893 27.5419 15.752 27.7527 16.3772 27.1296C16.7982 26.7075 17.8752 25.6392 18.3432 24.7765C18.4444 24.5883 18.4618 24.4365 18.4817 24.2674C18.5184 23.9639 18.5598 23.6009 19.1301 22.8749C19.226 22.7531 19.3319 22.6217 19.4422 22.487C19.8817 21.949 20.3831 21.3577 20.4832 21.0509C20.5971 20.6986 20.4185 20.6296 20.2087 20.5499C19.9366 20.4461 19.6073 20.3251 19.8277 19.5222C19.8718 19.3632 20.0441 19.1426 20.175 18.9767C20.2671 18.8598 20.3375 18.7703 20.3288 18.7461C20.3185 18.7187 20.2461 18.7145 20.154 18.7099C19.8314 18.6943 19.253 18.6645 20.3291 17.5326C20.622 17.227 20.978 16.8989 21.2994 16.6083C21.7725 16.1799 22.1707 15.8311 22.1743 15.7303C22.1751 15.6927 22.169 15.6586 22.1596 15.6261C22.5349 15.2797 22.9129 14.9375 23.2935 14.5995C23.8291 14.2218 24.5086 13.5982 25.3717 12.8474C25.5815 12.6648 25.8019 12.4755 26.0366 12.2778C26.824 11.6422 27.6143 11.0298 28.4284 10.4255C29.0863 9.96404 29.7967 9.50644 30.5852 9.0553C32.1562 8.15909 33.6334 7.55325 35.0813 7.01221C35.6935 6.78332 36.3008 6.56711 36.9105 6.34765C36.7019 6.48355 36.5163 6.61084 36.3787 6.71799C35.4388 7.45289 35.1964 7.97126 34.9837 8.4359C34.8414 8.74691 34.7091 9.03984 34.3981 9.37827C33.8298 10.0001 34.0369 10.1592 34.1855 10.2756C34.2631 10.3362 34.3248 10.387 34.2608 10.4844C34.2093 10.5626 34.0514 10.689 33.8923 10.8184C33.7533 10.9315 33.6101 11.0493 33.5296 11.1404C32.5568 12.2532 33.0375 12.1729 33.7156 12.0639C34.0908 12.0045 34.5287 11.9416 34.8267 12.0596C35.1129 12.2051 35.1125 12.3002 34.5755 12.8053C35.1203 12.5969 35.6706 12.3937 36.2199 12.2004C36.4009 12.0716 36.4948 11.9079 36.617 11.6593C36.8305 11.2154 37.9657 10.3973 38.8676 9.79878C39.2865 9.5187 39.6567 9.27965 39.8545 9.12629C40.9097 8.31609 40.4432 8.24182 40.0202 8.17509C39.7884 8.13912 39.5731 8.10746 39.6445 7.95454C39.6748 7.88932 39.5819 7.89096 39.4879 7.89254C39.4152 7.89374 39.3407 7.89548 39.3215 7.86589C39.184 7.64985 39.7904 7.1021 40.3773 6.60407C40.7126 6.31842 41.0358 6.04985 41.1942 5.85868C41.2424 5.80041 41.2777 5.74788 41.3105 5.69767C41.3585 5.62438 41.4057 5.55383 41.4932 5.47091C41.6916 5.28241 42.1573 4.99795 42.6747 4.69647C42.9396 4.54186 43.2175 4.38272 43.4784 4.22744C43.8166 4.02641 43.906 3.87988 44.004 3.72405C44.073 3.61429 44.146 3.5004 44.3111 3.36402C44.6101 3.11672 45.2909 2.79923 45.9276 2.52114C46.2066 2.39895 46.4779 2.28266 46.7045 2.17923C46.7967 2.13714 46.8366 2.10469 46.8387 2.07866C47.892 1.62188 48.919 1.21039 49.9288 0.839581C51.6105 0.223112 53.2614 -0.287436 54.9749 -0.690721C57.9896 -1.39099 61.2059 -1.80539 65.1255 -1.59503C65.6891 -1.56307 66.2652 -1.51841 66.8558 -1.45925C68.1709 -1.3279 69.5812 -1.19965 71.0057 -1.04163C75.5339 -0.318561 79.9566 0.959952 84.1433 2.7033C84.896 3.24299 85.8352 3.83614 86.9415 4.50197C89.0214 5.75662 91.1844 6.93831 93.6292 8.50011C95.4352 9.65765 97.3889 11.0247 99.4921 12.8168C103.018 15.8298 106.377 19.1734 109.871 23.1461C113.18 26.8858 116.538 31.4292 118.846 34.9288L115.798 34.9766C115.926 34.7777 116.053 34.5824 116.177 34.391C117.442 32.45 118.999 30.562 120.508 28.8677C122.628 26.4797 124.655 24.483 125.561 22.9571C125.851 22.4673 126.072 21.9405 126.295 21.4264C126.454 21.0605 126.616 20.6995 126.797 20.3704C127.493 19.6929 128.201 19.028 128.924 18.3759C130.33 17.3435 132.47 15.7485 134.351 13.9509C135.158 13.3589 135.983 12.783 136.789 12.249C138.549 11.0797 140.329 10.0244 142.175 9.05767C142.776 8.74391 143.393 8.43452 144.012 8.13843C144.018 8.13567 144.024 8.1329 144.03 8.13013C145.278 7.53322 146.561 6.97711 147.836 6.48187C148.382 6.26916 148.934 6.06445 149.485 5.87035C150.894 5.37322 152.324 4.93513 153.748 4.56345C154.506 4.36556 155.261 4.18563 156.036 4.01897C157.278 3.75221 158.542 3.52723 159.809 3.34857C159.853 3.34235 159.897 3.33618 159.941 3.33007C161.941 3.05342 163.942 2.89649 165.946 2.84956C166.28 2.84183 166.604 2.86485 166.842 2.9135C167.08 2.96225 167.215 3.03164 167.218 3.10773C167.22 3.18399 167.089 3.26257 166.857 3.33142C166.625 3.40005 166.31 3.4535 165.981 3.48539C164.011 3.67503 162.058 3.97128 160.125 4.3801C160.08 4.38969 160.034 4.39934 159.989 4.40904C158.763 4.67168 157.546 4.97852 156.356 5.32357C155.614 5.53849 154.893 5.7646 154.171 6.00833C152.817 6.4659 151.461 6.98606 150.135 7.55882C149.616 7.78282 149.098 8.01673 148.586 8.25781C147.389 8.82116 146.189 9.44036 145.027 10.0958C145.02 10.0998 145.013 10.1037 145.006 10.1077C144.436 10.4299 143.868 10.7641 143.318 11.1015C141.611 12.1464 139.977 13.27 138.369 14.4958C137.541 15.1297 136.691 15.8117 135.868 16.5105C135.409 16.8998 134.959 17.2931 134.519 17.6876C134.279 17.9026 134.038 18.1218 133.798 18.3437C128.266 23.4602 123.652 29.4229 119.727 35.8482C119.489 36.2387 119.255 36.6284 119.025 37.0171L117.457 39.5926L115.685 37.0695C111.549 31.3364 106.873 26.0296 101.625 21.4646C96.0353 16.5986 89.7793 12.5898 83.0372 9.9467C77.2116 7.65413 71.0357 6.41537 64.8599 6.37112C62.0066 6.34961 59.1482 6.62863 56.3537 7.18982C32.8059 12.3738 14.8943 34.7047 9.21757 57.8912C6.33528 69.634 6.69287 81.8628 10.2651 93.2857C12.1509 99.4166 14.9644 105.471 18.3383 111.075C21.7504 116.748 25.6777 121.987 30.1123 127.076C31.3348 128.477 32.6147 129.887 33.9696 131.319C34.1065 131.464 34.2434 131.609 34.3809 131.754Z" fill="url(#paint0_linear_130_225)"/>
<defs>
<linearGradient id="paint0_linear_130_225" x1="103.864" y1="-5.07713" x2="141.265" y2="208.676" gradientUnits="userSpaceOnUse">
<stop offset="0.103575" stop-color="#EC008C"/>
<stop offset="0.603242" stop-color="#F7901E"/>
</linearGradient>
</defs>
</svg>
